<?xml version="1.0" standalone="no"?>
<!DOCTYPE svg PUBLIC "-//W3C//DTD SVG 20010904//EN"
 "http://www.w3.org/TR/2001/REC-SVG-20010904/DTD/svg10.dtd">
<svg version="1.0" xmlns="http://www.w3.org/2000/svg"
 width="800.000000pt" height="800.000000pt" viewBox="0 0 800.000000 800.000000"
 preserveAspectRatio="xMidYMid meet">

<g transform="translate(0.000000,800.000000) scale(0.100000,-0.100000)"
fill="#F16841" stroke="none">
<path d="M4588 6365 c-20 -8 -59 -17 -85 -21 -26 -3 -65 -15 -85 -25 -21 -11
-42 -19 -49 -19 -6 0 -24 -10 -39 -22 -16 -13 -51 -39 -79 -58 -29 -19 -91
-65 -139 -102 -48 -37 -107 -82 -131 -100 -24 -18 -78 -60 -120 -94 -42 -33
-110 -86 -151 -118 -178 -135 -208 -159 -259 -204 -29 -26 -73 -61 -97 -78
-23 -17 -78 -60 -121 -97 -219 -185 -280 -236 -332 -276 -31 -24 -105 -87
-166 -140 -60 -53 -137 -119 -170 -146 -33 -27 -98 -86 -145 -130 -47 -44
-139 -127 -204 -185 -169 -149 -166 -147 -166 -151 0 -2 109 -4 243 -5 215 0
250 -2 312 -21 39 -11 90 -23 115 -26 25 -4 59 -13 75 -21 17 -9 41 -16 55
-16 14 0 39 -9 55 -20 17 -11 35 -20 42 -20 45 0 204 -156 224 -219 6 -20 15
-40 20 -45 5 -6 9 -25 9 -42 0 -18 3 -35 8 -37 4 -3 30 14 58 36 53 43 167
137 195 159 8 7 46 40 85 73 38 33 96 83 129 110 60 50 516 454 525 465 3 4
102 96 220 205 211 195 469 447 816 794 l174 174 0 69 c0 38 -6 83 -14 101
-15 33 -77 107 -90 107 -4 0 -19 9 -33 20 -14 11 -33 20 -42 20 -9 1 -34 9
-56 20 -22 11 -55 19 -72 20 -18 0 -59 9 -90 19 -32 11 -90 22 -129 26 -39 3
-92 12 -119 20 -59 18 -128 18 -177 0z"/>
<path d="M5254 5652 c-12 -4 -158 -140 -325 -303 -431 -419 -697 -666 -1039
-965 -279 -244 -328 -285 -529 -446 -102 -81 -203 -162 -223 -179 -51 -42
-107 -79 -119 -79 -6 0 -31 -10 -57 -21 -43 -20 -58 -21 -170 -16 -67 4 -132
11 -142 17 -12 6 -27 7 -36 2 -25 -14 -424 -385 -424 -394 0 -12 84 0 133 18
45 17 252 19 312 3 22 -6 85 -16 140 -23 55 -6 109 -17 120 -23 11 -6 47 -14
80 -18 33 -4 86 -15 118 -26 31 -10 64 -19 72 -19 8 0 32 -9 52 -20 21 -11 45
-20 54 -20 9 0 22 -7 29 -15 6 -8 22 -17 33 -21 53 -16 147 -114 198 -205 9
-16 22 -36 29 -44 7 -8 15 -47 18 -85 2 -39 9 -70 14 -70 5 0 43 28 85 63 41
34 101 82 133 107 31 25 84 68 116 96 33 29 81 69 107 90 26 22 109 93 185
159 75 66 164 143 197 170 33 28 91 80 130 116 38 36 117 108 175 159 237 209
713 663 1105 1055 364 364 419 425 430 472 13 62 -4 137 -46 201 -61 93 -165
153 -324 186 -33 7 -69 17 -80 23 -11 6 -51 14 -90 18 -38 4 -87 14 -108 21
-43 15 -319 28 -353 16z"/>
<path d="M6315 5108 c-4 -13 -208 -223 -454 -468 -410 -409 -534 -530 -712
-694 -35 -32 -104 -97 -154 -145 -49 -47 -151 -140 -225 -206 -74 -65 -162
-145 -195 -176 -33 -32 -98 -90 -145 -129 -47 -40 -116 -100 -154 -133 -178
-160 -828 -687 -847 -687 -5 0 -9 -4 -9 -10 0 -5 12 -10 28 -10 15 0 39 -6 54
-14 14 -8 50 -17 80 -21 29 -4 64 -13 78 -20 14 -7 61 -16 105 -20 44 -4 96
-13 116 -20 21 -8 142 -18 284 -25 272 -14 636 -2 750 25 33 7 94 17 135 20
41 4 84 12 95 18 11 6 49 16 85 23 111 22 194 48 226 71 16 12 43 45 58 75 16
29 39 71 52 93 13 22 29 51 36 65 12 22 81 131 108 170 6 8 25 36 43 61 41 60
171 231 189 250 7 8 75 82 150 164 132 146 284 298 438 440 41 38 107 99 145
135 39 37 165 154 280 261 285 264 500 494 563 601 14 23 36 56 49 71 13 16
23 33 23 39 0 6 7 20 17 30 15 17 15 18 -3 18 -11 0 -26 -6 -32 -12 -10 -10
-91 -13 -335 -13 -285 0 -326 2 -361 18 -21 9 -57 17 -80 17 -23 0 -58 9 -79
20 -20 11 -49 20 -64 20 -16 0 -48 9 -72 20 -24 11 -51 20 -60 20 -9 0 -29 9
-46 20 -16 11 -42 20 -56 20 -15 0 -38 9 -52 20 -32 26 -44 25 -52 -2z"/>
<path d="M1785 4285 c-49 -41 -144 -120 -210 -175 -381 -316 -559 -469 -754
-648 -86 -79 -157 -146 -158 -150 -2 -4 77 -7 175 -8 138 -1 184 -4 207 -16
17 -9 62 -19 100 -23 39 -4 81 -13 95 -20 14 -7 43 -16 65 -19 151 -28 335
-200 335 -315 0 -23 3 -41 6 -41 12 0 95 78 304 284 113 111 242 236 287 277
181 165 253 233 253 241 0 4 -17 8 -39 8 -21 0 -67 9 -101 20 -34 11 -90 20
-124 20 -33 0 -86 7 -116 15 -30 9 -89 20 -130 25 -41 5 -88 16 -105 24 -16 9
-37 16 -46 16 -22 0 -139 108 -139 129 0 9 -7 26 -15 37 -18 24 -19 93 -1 119
7 11 16 32 20 47 3 16 49 73 102 128 53 55 93 100 88 100 -5 0 -49 -34 -99
-75z"/>
<path d="M2110 4305 c-14 -7 -46 -17 -72 -20 -27 -4 -50 -11 -53 -15 -3 -5
-22 -14 -41 -20 -61 -20 -116 -63 -161 -124 -19 -24 -23 -43 -23 -95 0 -68 3
-77 32 -99 14 -11 16 -11 11 7 -16 61 40 149 141 223 37 26 45 28 137 28 75 0
110 -5 149 -20 28 -11 74 -20 103 -20 29 -1 70 -8 92 -16 22 -8 94 -19 161
-24 66 -5 136 -15 155 -24 19 -8 45 -17 59 -20 36 -8 90 -62 90 -91 0 -45 -75
-146 -139 -186 -54 -35 -96 -37 -213 -10 -91 20 -272 36 -264 22 3 -4 43 -11
88 -14 46 -4 107 -14 136 -22 39 -12 107 -16 265 -18 207 -2 213 -1 241 21 16
12 34 22 40 22 7 0 23 15 37 33 21 27 24 43 23 107 0 63 -4 81 -26 115 -43 67
-149 155 -186 155 -11 0 -30 8 -43 18 -14 11 -49 22 -84 25 -34 3 -76 13 -95
20 -19 8 -69 18 -110 22 -41 3 -90 13 -109 21 -47 20 -306 19 -341 -1z"/>
<path d="M1977 4078 c-17 -13 -11 -16 60 -31 43 -9 102 -17 130 -17 29 0 75
-9 103 -20 29 -11 75 -20 108 -20 31 -1 93 -7 137 -16 44 -8 105 -19 134 -24
30 -5 59 -16 63 -25 14 -25 57 -19 68 10 20 52 6 60 -120 70 -41 4 -104 12
-140 20 -36 7 -91 16 -123 19 -32 4 -68 13 -80 20 -33 21 -316 32 -340 14z"/>
<path d="M1970 3949 c36 -4 94 -15 130 -23 73 -17 210 -26 210 -14 0 4 -17 8
-37 8 -21 1 -63 9 -93 20 -42 15 -80 19 -165 18 -106 -1 -108 -1 -45 -9z"/>
<path d="M2440 3878 c0 -4 22 -8 49 -8 26 0 70 -3 97 -6 33 -3 44 -2 34 4 -19
12 -180 21 -180 10z"/>
<path d="M2105 3830 c75 -12 123 -12 105 0 -8 5 -46 9 -85 9 l-70 -2 50 -7z"/>
<path d="M680 3201 c-47 -9 -95 -22 -107 -29 -12 -6 -27 -12 -33 -12 -21 0
-107 -61 -129 -91 -30 -40 -45 -118 -30 -155 l12 -29 7 30 c9 38 58 110 103
153 l35 32 141 0 c112 0 153 -4 198 -19 32 -11 92 -22 133 -25 41 -4 93 -13
115 -21 22 -8 63 -14 92 -15 41 0 62 -6 97 -31 43 -28 46 -34 46 -73 0 -33 -7
-53 -30 -82 -40 -53 -72 -84 -86 -84 -6 0 -17 -6 -23 -14 -42 -50 229 -25 287
27 10 9 29 39 41 65 l23 49 -21 46 c-12 25 -21 49 -21 52 0 14 -68 85 -102
109 -20 13 -51 27 -69 31 -19 4 -45 13 -59 20 -14 7 -50 16 -80 20 -30 4 -66
13 -80 20 -25 13 -205 36 -315 41 -33 1 -98 -5 -145 -15z"/>
<path d="M2300 3194 c-25 -3 -58 -11 -75 -19 -16 -8 -49 -19 -72 -25 -23 -6
-45 -15 -48 -20 -3 -6 -14 -10 -23 -10 -23 0 -111 -60 -156 -107 -67 -69 -86
-108 -86 -173 0 -58 1 -59 58 -117 64 -64 119 -89 227 -102 33 -4 98 -15 145
-24 144 -28 280 -49 400 -62 63 -7 129 -18 145 -25 20 -8 110 -12 265 -13 229
-2 236 -1 267 21 17 12 35 22 40 22 21 1 74 60 92 104 25 56 27 103 7 148 -8
18 -17 45 -20 60 -14 65 -183 200 -281 224 -16 4 -39 13 -50 20 -11 6 -47 15
-80 19 -33 4 -74 13 -91 20 -17 7 -60 16 -95 20 -35 4 -77 14 -92 22 -21 10
-80 15 -230 17 -111 2 -222 2 -247 0z m160 -194 c28 -11 73 -20 99 -20 27 0
77 -9 112 -19 35 -10 112 -22 170 -25 58 -3 122 -12 142 -21 20 -8 52 -15 70
-15 19 0 46 -9 60 -20 14 -11 30 -20 37 -20 23 0 60 -49 60 -79 0 -47 -84
-170 -141 -208 -37 -25 -46 -26 -158 -24 -88 1 -135 6 -181 21 -40 13 -90 20
-139 20 -42 0 -122 9 -179 20 -56 11 -126 20 -155 20 -29 0 -89 9 -135 20 -46
11 -90 20 -98 20 -26 0 -92 51 -105 81 -10 27 -9 35 11 72 35 64 78 115 133
158 l49 39 149 0 c125 0 156 -3 199 -20z"/>
<path d="M2139 2922 c-53 -19 -81 -40 -73 -53 3 -5 53 -9 112 -9 66 0 129 -6
162 -15 30 -9 90 -20 133 -25 44 -6 89 -16 100 -22 12 -7 74 -15 137 -19 68
-4 130 -14 152 -23 21 -9 53 -16 71 -16 20 0 50 -10 71 -25 47 -32 60 -31 85
1 54 68 -8 109 -179 118 -58 3 -130 12 -160 21 -30 8 -71 15 -90 15 -20 0 -60
7 -90 16 -53 15 -233 42 -335 49 -31 3 -67 -2 -96 -13z"/>
<path d="M2020 2772 c0 -21 29 -32 81 -32 32 0 86 -7 122 -15 35 -8 115 -19
178 -25 63 -5 130 -15 149 -20 19 -6 82 -15 140 -19 65 -5 119 -15 138 -25 23
-12 52 -16 95 -14 l62 3 -40 21 c-27 14 -68 23 -125 28 -47 3 -101 11 -120 17
-19 6 -73 14 -120 18 -47 5 -114 15 -150 24 -149 37 -410 61 -410 39z"/>
<path d="M561 3007 c-18 -22 -2 -27 84 -27 46 0 104 -7 131 -15 27 -9 91 -20
143 -26 52 -5 119 -17 150 -25 30 -7 69 -14 87 -14 17 0 41 -9 54 -20 28 -25
33 -25 53 -2 23 25 22 27 -23 51 -31 16 -59 21 -118 21 -42 0 -95 5 -117 11
-183 49 -421 73 -444 46z"/>
<path d="M573 2903 c9 -2 23 -2 30 0 6 3 -1 5 -18 5 -16 0 -22 -2 -12 -5z"/>
<path d="M713 2869 c11 -7 23 -7 35 0 14 9 11 10 -18 10 -29 0 -32 -1 -17 -10z"/>
<path d="M498 2823 c7 -3 16 -2 19 1 4 3 -2 6 -13 5 -11 0 -14 -3 -6 -6z"/>
<path d="M723 2783 c9 -2 25 -2 35 0 9 3 1 5 -18 5 -19 0 -27 -2 -17 -5z"/>
<path d="M910 2750 c0 -6 32 -10 72 -10 39 0 69 2 67 4 -10 9 -139 14 -139 6z"/>
</g>
</svg>
