<?xml version="1.0" standalone="no"?>
<!DOCTYPE svg PUBLIC "-//W3C//DTD SVG 20010904//EN"
 "http://www.w3.org/TR/2001/REC-SVG-20010904/DTD/svg10.dtd">
<svg version="1.0" xmlns="http://www.w3.org/2000/svg"
 width="40" height="40" viewBox="0 0 707.000000 865.000000"
 preserveAspectRatio="xMidYMid meet">

<g transform="translate(0.000000,865.000000) scale(0.100000,-0.100000)"
fill="#F16841" stroke="none">
<path d="M293 8625 c-136 -42 -247 -166 -273 -306 -6 -33 -10 -898 -10 -2418
l0 -2366 408 408 c224 224 412 407 417 407 5 0 365 -355 800 -790 l790 -790
885 590 c487 325 892 590 900 590 8 0 213 -198 455 -440 l440 -440 345 219
c190 120 629 399 975 618 l630 399 3 1145 2 1144 -1023 1023 -1024 1022 -2339
-1 c-1905 0 -2347 -3 -2381 -14z m4637 -311 l40 -36 0 -787 0 -786 24 -50 c28
-59 66 -97 121 -122 37 -17 94 -18 829 -21 550 -2 794 -6 803 -14 11 -8 13
-200 13 -1023 l0 -1013 -799 -506 c-439 -278 -804 -506 -812 -506 -8 0 -213
199 -456 442 l-442 442 -888 -592 c-488 -326 -893 -592 -898 -592 -5 0 -374
365 -820 810 l-810 810 -250 -250 c-137 -137 -256 -250 -262 -250 -10 0 -13
403 -13 2013 1 2162 -2 2035 51 2056 15 6 857 10 2276 10 l2253 1 40 -36z"/>
<path d="M422 3557 l-412 -412 0 -1416 c0 -1242 2 -1422 15 -1467 19 -63 101
-156 172 -195 114 -61 -136 -57 3338 -57 2833 0 3177 2 3230 16 110 28 209
103 261 196 l29 53 3 1794 c2 1446 0 1792 -10 1784 -30 -24 -1884 -1196 -1898
-1200 -9 -2 -184 165 -459 441 l-444 444 -883 -589 c-486 -324 -890 -589 -896
-589 -7 0 -375 362 -818 805 -443 443 -807 805 -810 805 -3 0 -191 -186 -418
-413z m1219 -793 l786 -786 886 591 c488 325 890 591 895 591 4 0 205 -198
447 -440 242 -242 443 -440 448 -440 4 0 370 230 814 512 444 281 816 513 825
516 17 4 18 -64 18 -1481 l0 -1486 -22 -15 c-20 -14 -341 -16 -3203 -16 -2862
0 -3183 2 -3203 16 l-22 15 0 1347 0 1347 257 257 c142 142 265 258 273 258 8
0 369 -354 801 -786z"/>
</g>
</svg>
