<?xml version="1.0" standalone="no"?>
<!DOCTYPE svg PUBLIC "-//W3C//DTD SVG 20010904//EN"
 "http://www.w3.org/TR/2001/REC-SVG-20010904/DTD/svg10.dtd">
<svg version="1.0" xmlns="http://www.w3.org/2000/svg"
 width="569.000000pt" height="524.000000pt" viewBox="0 0 569.000000 524.000000"
 preserveAspectRatio="xMidYMid meet">

<g transform="translate(0.000000,524.000000) scale(0.100000,-0.100000)"
fill="#F16841" stroke="none">
<path d="M1118 4549 c-113 -9 -342 -42 -443 -64 -38 -8 -73 -15 -77 -15 -10 0
-10 -47 -2 -117 6 -49 9 -53 33 -53 44 0 271 -39 356 -61 333 -86 656 -280
734 -442 49 -101 18 -188 -119 -325 l-92 -93 44 -47 c131 -139 450 -452 460
-452 7 0 42 30 78 65 78 78 134 107 216 113 149 10 375 -110 418 -223 20 -50
18 -130 -4 -201 -21 -65 -8 -89 108 -205 114 -113 139 -126 207 -108 20 6 107
86 272 251 207 209 242 248 248 281 4 22 3 49 -4 65 -13 31 -99 125 -179 195
-58 52 -86 58 -157 32 -60 -21 -123 -18 -181 9 -96 44 -134 113 -134 240 0 91
-16 190 -38 232 -23 43 -606 640 -682 697 -250 189 -605 264 -1062 226z"/>
<path d="M4415 3720 c-66 -5 -203 -13 -305 -19 -102 -6 -249 -16 -326 -23
l-142 -12 -17 -82 c-10 -46 -15 -89 -12 -96 3 -9 63 -21 173 -37 93 -12 173
-27 179 -32 6 -6 -19 -92 -65 -231 -41 -121 -80 -237 -86 -258 l-12 -36 229
-153 c126 -84 227 -156 225 -160 -3 -4 -137 -60 -298 -125 -161 -64 -298 -120
-304 -124 -8 -5 -8 -36 2 -117 8 -60 23 -186 33 -280 11 -93 23 -189 27 -212
4 -30 3 -43 -5 -43 -11 0 -56 25 -426 243 -104 60 -184 102 -190 97 -6 -5 -57
-76 -115 -159 -58 -83 -110 -150 -116 -149 -7 2 -82 69 -168 151 l-157 147
-79 0 c-43 0 -81 -4 -85 -9 -6 -10 405 -841 416 -841 3 0 84 110 180 245 96
134 177 244 181 245 4 0 58 -32 120 -72 62 -39 147 -92 188 -118 41 -26 156
-98 255 -160 330 -208 446 -280 451 -280 7 0 1 44 -32 220 -13 74 -54 297 -89
495 -36 198 -68 367 -71 377 -7 22 -1 24 128 58 108 27 258 66 638 165 96 25
263 69 370 96 107 28 199 54 203 58 8 8 -43 30 -288 124 -84 33 -300 117 -440
172 -33 13 -123 48 -200 78 -77 30 -173 67 -213 82 -55 22 -72 33 -69 45 4 14
97 165 252 405 104 162 195 313 195 324 0 6 -3 10 -7 9 -5 0 -62 -4 -128 -8z"/>
<path d="M779 2654 l-534 -535 185 -182 c102 -100 216 -211 253 -247 l68 -64
534 534 535 535 -238 238 c-130 131 -244 242 -253 247 -12 7 -131 -107 -550
-526z"/>
</g>
</svg>
