<?xml version="1.0" ?><svg viewBox="0 0 512 512" xmlns="http://www.w3.org/2000/svg"><title/>
<g id="Solid">
<path d="M135.05566,368l-7.29443-14.58887,5.19971-41.59668a192.12026,192.12026,0,0,0,0-47.6289l-5.38428-43.07617L136,212.68652V208H32v4.68652l8.42334,8.42286L34.8667,265.56445a192.2049,192.2049,0,0,0-.30811,45.01758l5.8169,52.35645L35.314,368ZM104,312H64V296h40ZM56,264h56v16H56Z"/>
<rect height="32" width="16" x="432" y="248"/>
<polygon points="464 248 464 296 416 296 416 248 352 248 352 336 480 336 480 248 464 248"/>
<polygon points="355.816 232 476.184 232 466.584 208 365.416 208 355.816 232"/><path d="M310.085,83.6084l11.64209-18.49317-1.99853-2.81738L299.04736,67.918l-15.6582-11.66211-1.16748-21.90137-2.98682-.99511L265.752,50.34082h-19.5039L232.76611,33.35938l-2.98632.99511L228.6123,56.25488,212.95312,67.917,192.27246,62.2959l-1.99853,2.81836L201.915,83.6084l-5.90772,18.6289L176,110.17676v3.64551l20.00732,7.93945L201.915,140.3916,190.273,158.88477l1.99853,2.81738,20.68116-5.62012,15.6582,11.66211,1.16748,21.90137,2.98682.99511,13.48291-16.98144H265.752l13.48194,16.98144,2.98632-.99511,1.16749-21.90039L299.04688,156.083l20.68066,5.62109,1.99853-2.81836L310.085,140.3916l5.90772-18.6289L336,113.82324v-3.64551l-20.00732-7.93945ZM256,152a40,40,0,1,1,40-40A40.04552,40.04552,0,0,1,256,152Z"/><circle cx="256" cy="112" r="24"/><path d="M323.21143,405.48633A24.06539,24.06539,0,0,0,306.084,386.05859l-24.67724-7.05078A24.101,24.101,0,0,1,264,355.93164v-7.24512l8.9707-8.9707A23.84541,23.84541,0,0,0,280,322.74512V296a24,24,0,0,0-48,0v26.74512a23.84779,23.84779,0,0,0,7.02979,16.97168L248,348.68652v7.24512a24.10087,24.10087,0,0,1-17.40723,23.07617L205.68115,386.126a24.09422,24.09422,0,0,0-17.08984,19.1875c-3.25244,19.85156-7.69141,47.333-10.36768,65.5205A7.99848,7.99848,0,0,0,186.13818,480H325.3501a8.00021,8.00021,0,0,0,7.90722-9.21582Z"/><path d="M111.65234,405.75879A209.07442,209.07442,0,0,0,147.834,433.69727l8.332-13.66016a193.06856,193.06856,0,0,1-33.40821-25.7959Z"/><path d="M355.834,420.03711l8.332,13.66016a210.36818,210.36818,0,0,0,64.18066-61.21192l-13.248-8.9707A194.2535,194.2535,0,0,1,355.834,420.03711Z"/><path d="M432.02783,179.20312l14.66113-6.40624A209.51874,209.51874,0,0,0,355.8457,73.48926l-7.6914,14.02929A193.445,193.445,0,0,1,432.02783,179.20312Z"/><path d="M148.48535,96.90137l-8.9707-13.24805a208.236,208.236,0,0,0-74.2041,89.14356l14.66211,6.40624A192.25292,192.25292,0,0,1,148.48535,96.90137Z"/></g></svg>