<?xml version="1.0" standalone="no"?>
<!DOCTYPE svg PUBLIC "-//W3C//DTD SVG 20010904//EN"
 "http://www.w3.org/TR/2001/REC-SVG-20010904/DTD/svg10.dtd">
<svg version="1.0" xmlns="http://www.w3.org/2000/svg"
 width="504.000000pt" height="460.000000pt" viewBox="0 0 504.000000 460.000000"
 preserveAspectRatio="xMidYMid meet">

<g transform="translate(0.000000,460.000000) scale(0.100000,-0.100000)"
fill="#F16841" stroke="none">
<path d="M1338 4159 c-2 -36 -8 -55 -20 -63 -29 -18 -53 4 -56 53 -3 40 -4 41
-38 41 -33 0 -34 -1 -34 -38 0 -60 -39 -82 -75 -42 -16 18 -19 18 -41 3 -13
-8 -24 -21 -24 -29 0 -7 -6 -17 -12 -21 -24 -15 -40 -56 -45 -114 -5 -47 -10
-59 -30 -70 -17 -9 -23 -20 -21 -38 l3 -26 356 -3 c319 -2 358 -1 370 14 12
14 10 19 -14 38 -17 14 -27 31 -27 49 0 15 -4 27 -10 27 -5 0 -10 8 -10 19 0
46 -83 181 -112 181 -4 0 -8 -11 -8 -25 0 -21 -5 -25 -28 -25 -38 0 -52 17
-52 62 0 34 -3 38 -25 38 -14 0 -25 5 -25 10 0 6 -4 10 -9 10 -6 0 -11 -23
-13 -51z"/>
<path d="M990 3708 c0 -55 26 -138 42 -138 5 0 8 -6 8 -14 0 -21 100 -106 132
-113 16 -3 31 -10 34 -14 7 -12 159 -12 182 0 9 5 37 18 62 29 67 31 140 119
140 170 0 12 5 24 10 27 6 3 10 30 10 58 l0 52 -310 0 -310 0 0 -57z"/>
<path d="M3900 3162 c0 -354 -2 -432 -14 -441 -9 -8 -56 -11 -142 -9 l-129 3
-3 234 c-2 212 -4 232 -18 220 -18 -15 -42 -29 -94 -55 -19 -10 -39 -24 -43
-31 -4 -7 -14 -13 -21 -13 -7 0 -21 -9 -30 -19 -10 -11 -31 -23 -47 -26 -16
-4 -29 -10 -29 -15 0 -4 -20 -18 -44 -30 -24 -11 -50 -28 -56 -36 -7 -7 -19
-14 -26 -14 -8 0 -14 -4 -14 -8 0 -5 -29 -23 -65 -41 -36 -18 -65 -36 -65 -41
0 -4 -8 -10 -17 -14 -10 -3 -27 -11 -37 -18 -63 -42 -126 -78 -136 -78 -7 0
-10 73 -10 219 0 201 -6 252 -25 221 -4 -6 -17 -15 -28 -21 -23 -9 -58 -30
-67 -39 -8 -8 -44 -30 -65 -39 -12 -5 -27 -16 -34 -25 -7 -9 -19 -16 -26 -16
-8 0 -26 -11 -42 -24 -16 -14 -42 -28 -56 -31 -15 -4 -33 -15 -40 -24 -7 -9
-21 -21 -32 -27 -91 -50 -122 -68 -134 -77 -14 -12 -39 -27 -88 -52 -18 -9
-37 -23 -44 -31 -6 -8 -17 -14 -24 -14 -29 0 -38 -30 -36 -119 1 -54 -2 -92
-8 -96 -36 -22 20 -25 424 -25 l435 0 0 -25 0 -25 -437 0 c-340 0 -434 -3
-425 -12 9 -9 12 -95 12 -324 0 -259 -2 -314 -14 -323 -11 -9 -60 -11 -170 -9
l-156 3 0 -37 0 -38 1405 0 1405 0 0 35 0 34 -97 3 -98 3 -3 458 -2 457 -100
0 -100 0 -2 438 -3 437 -40 0 -40 0 -3 -438 -2 -438 -63 3 -62 3 -5 435 -5
435 -32 3 -33 3 0 -429z m-340 -677 l0 -25 -250 0 c-233 0 -250 1 -259 19 -6
10 -7 21 -4 25 3 3 120 6 260 6 l253 0 0 -25z m-1022 -252 l3 -73 -146 0 -145
0 0 75 0 76 143 -3 142 -3 3 -72z m352 2 l0 -75 -133 0 c-90 0 -137 4 -145 12
-13 13 -17 120 -5 131 3 4 69 7 145 7 l138 0 0 -75z m370 0 l0 -75 -145 0
-145 0 0 68 c0 38 3 72 7 75 3 4 69 7 145 7 l138 0 0 -75z m922 -166 c3 -164
1 -192 -13 -205 -13 -12 -71 -14 -350 -12 l-334 3 -3 203 -2 202 349 0 350 0
3 -191z"/>
<path d="M2680 3543 c-19 -3 -39 -9 -44 -14 -6 -5 -27 -9 -47 -9 -21 0 -40 -4
-43 -9 -4 -5 -44 -12 -91 -16 -47 -4 -85 -11 -85 -16 0 -5 -18 -9 -39 -9 -22
0 -42 -4 -45 -9 -3 -5 -42 -12 -86 -16 -44 -4 -83 -11 -86 -16 -3 -5 -23 -9
-45 -9 -21 0 -39 -4 -39 -9 0 -5 -36 -12 -80 -16 -44 -4 -83 -11 -86 -16 -3
-5 -25 -9 -49 -9 -24 0 -46 -4 -49 -9 -3 -4 -37 -11 -76 -15 -38 -4 -72 -11
-75 -17 -4 -5 -135 -9 -321 -9 -173 0 -322 -4 -332 -9 -9 -5 -35 -17 -57 -27
-43 -20 -135 -101 -135 -119 0 -6 -9 -17 -20 -25 -11 -8 -20 -18 -20 -23 0 -4
-12 -34 -26 -65 -15 -31 -29 -74 -32 -95 -2 -21 -9 -40 -13 -43 -5 -3 -9 -18
-9 -33 0 -15 -4 -31 -9 -36 -6 -6 -13 -52 -17 -103 -4 -51 -11 -95 -15 -98 -5
-3 -9 -138 -9 -300 l0 -296 28 -39 c25 -36 30 -39 78 -39 44 0 54 4 82 33 l32
33 0 311 c0 211 3 314 11 318 6 4 9 29 8 56 -2 27 0 52 4 55 4 4 7 20 7 35 0
15 4 31 10 34 5 3 10 19 10 35 0 16 4 31 9 35 5 3 12 19 16 35 4 17 11 30 16
30 5 0 9 -432 9 -1089 0 -716 3 -1092 10 -1096 6 -3 10 -16 10 -27 0 -30 55
-78 96 -85 19 -3 34 -10 34 -14 0 -5 9 -9 20 -9 11 0 20 5 20 10 0 6 13 10 28
10 29 0 102 63 102 88 0 7 4 12 10 12 6 0 11 237 12 678 l3 677 38 3 37 3 0
-670 c0 -436 3 -672 10 -676 6 -3 10 -16 10 -27 0 -31 66 -88 101 -88 16 0 29
-4 29 -10 0 -5 9 -10 20 -10 11 0 20 5 20 10 0 6 13 10 28 10 29 0 102 63 102
88 0 7 4 12 10 12 6 0 11 402 12 1173 l3 1172 40 3 c22 2 44 8 50 13 5 5 26 9
46 9 21 0 40 4 44 9 3 6 37 13 75 17 39 4 73 11 76 15 3 5 25 9 49 9 24 0 46
4 49 9 3 5 42 12 86 16 44 4 83 11 86 16 3 5 20 9 39 9 19 0 36 4 39 9 3 5 42
12 86 16 44 4 83 11 86 16 3 5 23 9 45 9 21 0 39 5 39 10 0 6 18 10 39 10 22
0 42 4 45 9 3 4 35 11 72 14 68 7 114 32 114 64 0 7 5 13 10 13 6 0 10 17 10
38 0 29 -7 45 -28 65 -25 24 -35 27 -98 25 -38 0 -85 -3 -104 -5z m-1319 -339
c8 -9 12 -27 11 -39 -2 -13 2 -26 7 -30 6 -3 11 -17 11 -29 0 -28 -21 -36 -94
-36 -82 0 -99 34 -62 123 10 24 16 27 62 27 36 0 56 -5 65 -16z m11 -220 c-2
-23 1 -45 7 -49 6 -3 11 -37 11 -74 0 -37 4 -71 9 -76 5 -6 12 -39 15 -75 7
-90 14 -156 22 -214 5 -39 3 -51 -10 -58 -9 -5 -16 -15 -16 -22 0 -6 -16 -27
-35 -46 -19 -19 -35 -38 -35 -44 0 -12 -30 -46 -42 -46 -4 0 -8 5 -8 11 0 7
-16 26 -35 45 -19 18 -35 37 -35 41 0 5 -15 24 -34 42 -29 29 -33 37 -25 58 5
13 9 49 9 79 0 30 5 54 10 54 6 0 10 30 10 69 0 39 4 72 9 75 4 3 11 54 15
113 4 60 13 121 19 136 12 27 14 28 77 25 l65 -3 -3 -41z"/>
</g>
</svg>
