<?xml version="1.0" standalone="no"?>
<!DOCTYPE svg PUBLIC "-//W3C//DTD SVG 20010904//EN"
 "http://www.w3.org/TR/2001/REC-SVG-20010904/DTD/svg10.dtd">
<svg version="1.0" xmlns="http://www.w3.org/2000/svg"
 width="40" height="40" viewBox="0 0 218.000000 217.000000"
 preserveAspectRatio="xMidYMid meet">

<g transform="translate(0.000000,217.000000) scale(0.100000,-0.100000)"
fill="#F16841" stroke="none">
<path d="M397 2163 c-4 -3 -7 -48 -7 -100 l0 -93 -95 0 -95 0 0 -95 0 -95 -95
0 -95 0 0 -890 0 -890 885 0 884 0 3 98 3 97 95 5 95 5 3 92 3 93 94 0 95 0
-2 888 -3 887 -881 3 c-484 1 -884 -1 -887 -5z m1733 -888 l0 -845 -75 0 -75
0 -2 768 -3 767 -770 5 -770 5 -3 73 -3 72 851 0 850 0 0 -845z m-200 -190 l0
-845 -70 0 -70 0 0 754 c0 415 -3 761 -6 770 -6 14 -83 16 -775 16 l-769 0 0
75 0 75 845 0 845 0 0 -845z m-192 -192 l2 -843 -845 0 -845 0 0 838 c0 461 3
842 7 845 3 4 383 6 842 5 l836 -3 3 -842z"/>
</g>
</svg>
