<svg xmlns="http://www.w3.org/2000/svg" width="64.001" height="80.648" viewBox="0 0 64.001 80.648">
  <g id="Group_380" data-name="Group 380" transform="translate(-1075.947 -1808.67)">
    <g id="project-management-timeline-icon" transform="translate(1087.018 1851.992)">
      <path id="Path_293" data-name="Path 293" d="M19.435,53.573a1.032,1.032,0,0,1-1.375-.179l-.12-.12L16.028,51.3a1.085,1.085,0,0,1,.179-1.554,1.276,1.276,0,0,1,1.674-.06L18.9,50.764l3.347-2.69a1.051,1.051,0,0,1,1.494.359,1.2,1.2,0,0,1-.12,1.674l-4.184,3.467Z" transform="translate(-15.772 -47.888)" fill-rule="evenodd"/>
    </g>
    <path id="create-task-icon" d="M7.344,10.431h4.211v4.291H7.344a3.066,3.066,0,0,0-2.077.811l-.079.086a3.041,3.041,0,0,0-.9,2.154V73.3a3.067,3.067,0,0,0,3.053,3.053h25.1a23.3,23.3,0,0,0,1.3,4.291H7.344A7.382,7.382,0,0,1,0,73.3V17.773a7.324,7.324,0,0,1,2.156-5.186l.139-.127a7.318,7.318,0,0,1,5.049-2.029ZM59.709,48.685V17.773a3.071,3.071,0,0,0-3.055-3.052H52.446V10.431h4.208A7.385,7.385,0,0,1,64,17.773V49.91a23.22,23.22,0,0,0-4.291-1.225Zm-36.385-1.42a2.275,2.275,0,0,1,0-4.549H48.46a2.275,2.275,0,0,1,0,4.549ZM15.751,28.616a2.541,2.541,0,1,1-2.541,2.541A2.54,2.54,0,0,1,15.751,28.616Zm7.573,4.817a2.275,2.275,0,0,1,0-4.549H48.46a2.275,2.275,0,0,1,0,4.549Zm-6.957-26.5h8.118A7.684,7.684,0,0,1,31.945,0,7.676,7.676,0,0,1,39.4,6.853l8.229.081a.824.824,0,0,1,.827.829v9.123a.825.825,0,0,1-.827.827H16.376a.832.832,0,0,1-.829-.827V7.763a.816.816,0,0,1,.82-.829ZM31.859,3.546a3.918,3.918,0,1,1-3.917,3.919,3.919,3.919,0,0,1,3.917-3.919Z" transform="translate(1075.947 1808.67)" fill-rule="evenodd"/>
    <path id="create-task-icon-2" data-name="create-task-icon" d="M45.41,92.867a2.555,2.555,0,1,1-2.54,2.555A2.547,2.547,0,0,1,45.41,92.867Zm7.569,4.843a2.287,2.287,0,0,1,0-4.574H78.1a2.287,2.287,0,0,1,0,4.574Z" transform="translate(1046.324 1772.676)" fill="#202020" fill-rule="evenodd"/>
    <path id="create-task-icon-3" data-name="create-task-icon" d="M128.927,35.071v30.8a3.059,3.059,0,0,1-3.044,3.04H100.2v4.274h25.68a7.357,7.357,0,0,0,7.318-7.314V33.851a23.134,23.134,0,0,1-4.274,1.22Z" transform="translate(1006.746 1816.137)" fill-rule="evenodd"/>
  </g>
</svg>
